<svg width="24" height="20" viewBox="0 0 24 20" fill="none" xmlns="http://www.w3.org/2000/svg">
<path d="M12.0251 9.06557L18.1309 2.17551C18.579 1.61535 18.9992 1.2419 19.3913 1.05518C19.7834 0.868458 20.3342 0.793769 21.0438 0.831113H22.8363C23.4898 0.831113 23.8166 1.10186 23.8166 1.64336C23.8166 1.79273 23.7045 2.00746 23.4805 2.28755L14.1537 12.4826V17.6921C14.191 18.9058 13.6215 19.5127 12.4452 19.5127H11.5489C10.3726 19.5127 9.80308 18.9058 9.84042 17.6921V12.4826L0.429608 2.28755C0.205542 2.04481 0.0935059 1.82074 0.0935059 1.61535C0.0935059 1.09252 0.420275 0.831113 1.0738 0.831113H2.95036C3.65991 0.793769 4.21073 0.868458 4.60285 1.05518C4.99497 1.2419 5.41509 1.61535 5.86323 2.17551L12.0251 9.06557Z" fill="white"/>
</svg>
